<svg xmlns="http://www.w3.org/2000/svg" xmlns:xlink="http://www.w3.org/1999/xlink" style="vertical-align:-.255ex" width="1.55ex" height="1.759ex" viewBox="0 -647.8 667.5 757.5"><defs><path id="a" stroke-width="1" d="M84 250q0 122 82 200t194 89h17q16 0 42 1t50 0h99q15-8 15-20 0-9-13-19l-104-1q-111-1-137-6-49-12-87-36t-59-49-36-55-18-48-5-34v-2h444q15-8 15-20t-15-20H124v-2q0-21 10-51t33-65 64-64 97-41q27-6 138-7h104q13-10 13-20 0-12-15-20H446q-18 0-29-1-155 0-245 86-88 82-88 205z"/></defs><use fill="currentColor" stroke="currentColor" stroke-width="0" transform="scale(1 -1)" xlink:href="#a"/></svg>